# xmcd
#
# Track frame offsets:
#	150
#	21650
#	35975
#	62112
#	99305
#	121740
#	138542
#	154145
#	171687
#	177000
#	194017
#	204020
#	218830
#	234225
#
# Disc length: 3394 seconds
#
# Revision: 2
# Processed by: cddbd v1.5.2PL0 Copyright (c) Steve Scherf et al.
# Submitted via: EasyCDDAExtractor 15.2.5.1
#
DISCID=cc0d400e
DTITLE=Janis Joplin - Janis {Columbia Legacy Box} [CD3)
DYEAR=1993
DGENRE=Blues-Rock
TTITLE0=Me And Bobby Mcgee (Acoustic Demo)
TTITLE1=One Night Stand (Alternate Take)
TTITLE2=Tell Mama (Live)
TTITLE3=Try (Just A Little Bit Harder)(Live)
TTITLE4=Cry Babay
TTITLE5=Move Over
TTITLE6=A Woman Left Lonely
TTITLE7=Half Moon
TTITLE8=Happy Birthday, John (Happy Trails)
TTITLE9=My Baby
TTITLE10=Mercedes Benz
TTITLE11=Trust Me
TTITLE12=Get It While You Can
TTITLE13=Me And Bobby Mcgee
EXTD=
EXTT0=
EXTT1=
EXTT2=
EXTT3=
EXTT4=
EXTT5=
EXTT6=
EXTT7=
EXTT8=
EXTT9=
EXTT10=
EXTT11=
EXTT12=
EXTT13=
PLAYORDER=
